<svg xmlns="http://www.w3.org/2000/svg" viewBox="0 0 128 128" role="img" aria-label="Lark Codex Bridge">
  <defs>
    <linearGradient id="bg" x1="20" y1="12" x2="108" y2="118" gradientUnits="userSpaceOnUse">
      <stop offset="0" stop-color="#16342E"/>
      <stop offset="1" stop-color="#071311"/>
    </linearGradient>
    <linearGradient id="bridge" x1="33" y1="72" x2="96" y2="53" gradientUnits="userSpaceOnUse">
      <stop offset="0" stop-color="#00B96B"/>
      <stop offset=".72" stop-color="#19D889"/>
      <stop offset="1" stop-color="#4DA3FF"/>
    </linearGradient>
    <filter id="soft" x="-20%" y="-20%" width="140%" height="140%">
      <feDropShadow dx="0" dy="4" stdDeviation="5" flood-color="#000000" flood-opacity=".22"/>
    </filter>
  </defs>
  <rect width="128" height="128" rx="29" fill="url(#bg)"/>
  <circle cx="98" cy="30" r="18" fill="#123B35" opacity=".72"/>
  <circle cx="30" cy="98" r="22" fill="#09231F" opacity=".9"/>
  <g filter="url(#soft)">
    <path d="M27 39h37c8.8 0 16 7.2 16 16v10c0 8.8-7.2 16-16 16H50.8L36.4 92.2c-2.1 1.6-5.1.1-5.1-2.5V81H27c-8.8 0-16-7.2-16-16V55c0-8.8 7.2-16 16-16Z" fill="#F4FFF9"/>
    <rect x="71" y="49" width="43" height="37" rx="10" fill="#0B1E1A"/>
    <path d="M82 62l7 6-7 6" fill="none" stroke="#F4FFF9" stroke-width="5" stroke-linecap="round" stroke-linejoin="round"/>
    <path d="M93 74h11" fill="none" stroke="#4DA3FF" stroke-width="5" stroke-linecap="round"/>
  </g>
  <path d="M34 69c14 14 33 14 52 1 6.2-4.2 11.7-9.7 16-16" fill="none" stroke="url(#bridge)" stroke-width="8" stroke-linecap="round"/>
  <path d="M96 53h11v11" fill="none" stroke="#4DA3FF" stroke-width="8" stroke-linecap="round" stroke-linejoin="round"/>
  <circle cx="36" cy="61" r="5.5" fill="#00B96B"/>
  <circle cx="52" cy="61" r="5.5" fill="#00B96B"/>
</svg>
